<svg width="562" height="158" viewBox="0 0 562 158" fill="none" xmlns="http://www.w3.org/2000/svg">
<path fill-rule="evenodd" clip-rule="evenodd" d="M343.111 0.596938C336.85 1.92194 326.862 6.80893 323.298 10.2939C318.944 14.5499 317.046 17.7519 314.991 24.3119C313.568 28.8559 312.793 30.0199 311.343 29.7899C310.331 29.6289 306.51 29.2339 302.852 28.9119C287.562 27.5679 274.932 35.1889 267.38 50.3159L263.503 58.0819V72.0819V86.0819L267.316 94.0819C271.774 103.436 277.733 109.631 285.965 113.469C290.642 115.649 292.902 116.048 300.503 116.034C310.925 116.014 315.605 114.171 322.753 107.269L327.003 103.166V112.225C327.003 126.125 324.621 131.035 316.344 134.196C311.288 136.127 303.002 135.667 298.212 133.19C296.553 132.332 294.216 130.045 293.018 128.106L290.84 124.582H278.296H265.753L266.39 127.769C270.015 145.89 286.922 157.582 309.503 157.582C332.383 157.582 348.2 145.633 352.027 125.458C352.564 122.626 353.003 101.873 353.003 79.3399V38.3709L355.441 35.4729C356.782 33.8799 360.206 28.4149 363.05 23.3289C365.894 18.2429 370.02 11.9179 372.22 9.27391C374.42 6.62891 376.059 4.31293 375.862 4.12593C375.664 3.93993 373.028 3.05493 370.003 2.15993C363.265 0.165926 349.052 -0.660062 343.111 0.596938ZM345.392 8.06993C334.008 10.5469 324.07 17.6809 319.026 26.9979L316.55 31.5729L318.749 33.7719C319.958 34.9809 321.111 35.7709 321.312 35.5259C321.512 35.2819 323.115 32.5259 324.873 29.4019C330.66 19.1199 341.495 11.0379 353.503 8.04793C358.119 6.89893 358.234 6.80093 355.003 6.77193C353.078 6.75493 348.753 7.33893 345.392 8.06993ZM42.084 30.1699C36.202 31.7519 31.425 34.3529 28.532 37.5499C25.725 40.6519 25.003 40.0389 25.003 34.5519V29.5219L12.5 29.8019C5.623 29.9559 -0.00199947 30.4189 5.33168e-07 30.8319C0.00200053 31.2449 0.00299126 50.4819 0.00299126 73.5819V115.582H12.503H25.003L25.057 95.3319C25.127 68.8849 25.992 60.6569 29.113 56.7269C32.092 52.9739 35.77 51.5819 42.702 51.5819C49.124 51.5819 53.01 53.3799 56.174 57.8169C58.455 61.0149 58.509 61.6419 58.812 88.3319L59.121 115.582H72.062H85.003L85.005 89.3319C85.006 60.5349 85.363 58.5259 91.233 54.2229C96.721 50.1999 108.205 50.5559 112.845 54.8929C117.336 59.0909 117.484 60.0439 118.003 88.0819L118.503 115.082L131.318 115.362L144.134 115.643L143.818 84.8379L143.503 54.0319L140.216 47.3599C134.11 34.9639 123.723 29.0149 108.405 29.1399C99.601 29.2119 91.797 32.6929 84.837 39.6519L80.146 44.3439L77.05 40.4899C73.133 35.6159 66.4 31.6489 59.15 29.9419C52.11 28.2849 48.939 28.3279 42.084 30.1699ZM185.289 29.9679C167.916 35.6659 158.003 51.2699 158.003 72.9209C158.003 85.3799 162.488 97.7859 169.665 105.18C183.159 119.081 205.348 120.237 217.892 107.693L221.906 103.679L222.205 109.38L222.503 115.082L235.253 115.362L248.003 115.642V72.5819V29.5219L235.253 29.8019L222.503 30.0819L222.201 35.3319C222.034 38.2189 221.668 40.5819 221.386 40.5819C221.104 40.5819 219.719 39.2099 218.308 37.5329C213.968 32.3749 206.733 29.3879 197.542 28.9599C192.425 28.7219 187.971 29.0879 185.289 29.9679ZM417.503 29.4759C411.682 31.0419 407.179 33.4279 403.113 37.1009L399.003 40.8149V35.1979V29.5819H386.003H373.003V72.5819V115.582H386.003H399.003V88.8159C399.003 64.6759 399.185 61.7119 400.854 58.5989C403.75 53.1989 407.151 51.2249 414.264 50.8189C422.316 50.3579 426.632 52.5309 429.753 58.6179C431.918 62.8399 432.003 63.9989 432.003 89.2939V115.582H445.003H458.003V86.9399C458.003 61.2899 457.796 57.6069 456.024 51.6899C452.003 38.2669 441.09 29.6549 427.262 28.9919C423.545 28.8139 419.153 29.0319 417.503 29.4759ZM498.679 30.0219C486.978 33.3949 477.77 43.4939 473.613 57.5139C471.785 63.6789 471.491 78.6479 473.063 85.4669C478.315 108.247 499.59 121.459 520.003 114.615C524.717 113.035 527.808 111.161 531.253 107.797L536.003 103.157V109.37V115.582H549.003H562.003V72.5819V29.5819H549.003H536.003V35.7029V41.8229L531.909 37.6049C529.658 35.2849 525.775 32.4839 523.282 31.3809C517.454 28.8029 505.247 28.1289 498.679 30.0219ZM200.503 51.0729C199.953 51.2569 198.302 51.6709 196.833 51.9929C192.269 52.9959 186.403 59.7449 184.995 65.6139C181.333 80.8789 189.626 93.5819 203.253 93.5819C215.309 93.5819 222.003 86.0879 222.003 72.5919C222.003 64.4789 219.959 59.4059 215.016 55.2459C211.001 51.8679 204.084 49.8789 200.503 51.0729ZM301.503 52.0839C292.866 55.1379 288.357 63.7609 289.286 75.4509C290.178 86.6869 297.208 93.5819 307.77 93.5819C320.01 93.5819 326.992 85.9539 326.992 72.5819C326.992 62.2789 321.606 53.9529 313.48 51.6969C308.388 50.2839 306.415 50.3469 301.503 52.0839ZM510.64 52.0469C501.728 55.2239 497.413 63.0959 498.241 74.6669C498.65 80.3769 499.309 82.5499 501.626 85.8169C505.9 91.8449 510.106 93.7709 518.113 93.3659C529.105 92.8109 534.811 86.9089 535.746 75.1269C536.401 66.8839 534.618 60.9619 530.134 56.4779C526.657 52.9999 520.936 50.5469 516.503 50.6309C515.403 50.6529 512.765 51.2889 510.64 52.0469Z" fill="#3B1B1C"/>
</svg>
